<?xml version="1.0" encoding="utf-8"?>
<!-- Copyright (C) 2016 Jesse Farebrother -->
<!DOCTYPE svg PUBLIC "-//W3C//DTD SVG 1.1//EN" "http://www.w3.org/Graphics/SVG/1.1/DTD/svg11.dtd">
<svg version="1.1" id="Layer_1" xmlns="http://www.w3.org/2000/svg" xmlns:xlink="http://www.w3.org/1999/xlink"
  viewBox="0 0 1817 650" enable-background="new 0 0 1817 650" xml:space="preserve">
<g>
  <g>
		<g>
			<polygon fill="#BDE2F4" points="1417.902,645.453 1498.664,539.06 1579.427,645.453 			"/>
			<polygon fill="#8CD6F4" points="1498.664,539.06 1469.473,645.453 1532.725,645.453 			"/>
		</g>
		<g>
			<polygon fill="#BDE2F4" points="1211.936,645.453 1292.698,539.06 1373.46,645.453 			"/>
			<polygon fill="#8CD6F4" points="1292.698,539.06 1263.506,645.453 1326.758,645.453 			"/>
		</g>
		<g>
			<polygon fill="#BDE2F4" points="1281.448,645.453 1390.056,502.377 1498.664,645.453 			"/>
			<polygon fill="#8CD6F4" points="1390.056,502.377 1350.8,645.453 1435.861,645.453 			"/>
		</g>
	</g>
  <g>
    <g>
      <path fill="#F1F2F2" d="M798.051,647.621v-69.968h3.366v-14.476h-17.169v3.03H729.04v-4.713h-18.515l-9.426-14.139h-30.634
        c0,0-9.089-19.862-46.793-19.862v-9.426l-16.159-5.723l-16.495,4.377v10.436c0,0-34.337,0.337-49.486,20.872v99.593H798.051z"/>
      <path fill="#F1F2F2" d="M545.233,647.621V547.604h-10.015v-25.753l-11.614-15.906h6.817v-6.565h-5.807v-6.312h5.807v-7.322
        h-8.079v-4.04h2.777c0-44.437-31.56-59.586-31.56-59.586v-7.827h-3.409v-6.186l-2.146-2.146v-31.56h-3.787
        c0-15.401-9.342-18.515-9.342-18.515v-5.723h-2.02v297.457H545.233z"/>
      <path fill="#F1F2F2" d="M472.855,647.621V350.164h-2.02v5.723c0,0-9.342,3.114-9.342,18.515h-3.787v31.56l-2.146,2.146v6.186
        h-3.409v7.827c0,0-31.56,15.149-31.56,59.586h2.777v4.04h-8.079v7.322h5.807v6.312h-5.807v6.565h6.817l-11.614,15.906v25.753
        h-10.015v100.017H472.855z"/>
      <polygon fill="#F1F2F2" points="240.236,647.621 418.656,647.621 418.656,566.288 237.543,566.288 237.543,578.407
        230.81,589.516 240.236,589.516 			"/>
    </g>
    <path fill="#D1D1D1" d="M422.107,505.945c2.946-0.926,101.498,0,101.498,0l11.614,15.906H410.492L422.107,505.945z"/>
    <path fill="#D1D1D1" d="M541.865,547.604c0,0,128.599,0.25,128.599,0s30.634-0.25,30.634-0.25l9.426,14.139h-168.66V547.604z"/>
    <polygon fill="#D1D1D1" points="744.189,647.621 744.189,566.288 729.04,566.207 729.04,647.621 		"/>
    <polygon fill="#D1D1D1" points="400.477,647.621 400.477,566.74 393.576,566.207 393.576,647.621 		"/>
    <polygon fill="#D1D1D1" points="240.236,589.516 347.625,589.516 240.236,603.689 		"/>
    <rect x="423.369" y="481.707" fill="#D1D1D1" width="98.973" height="4.04"/>
    <rect x="455.56" y="414.294" fill="#D1D1D1" width="34.59" height="6.312"/>
  </g>
</g>
</svg>
